<mxfile host="app.diagrams.net" modified="2021-07-25T18:01:45.931Z" agent="5.0 (Macintosh; Intel Mac OS X 10_15_5) AppleWebKit/537.36 (KHTML, like Gecko) Chrome/92.0.4515.107 Safari/537.36" etag="yjXCAywMMYxT-9MSFbil" version="14.9.0" type="github">
  <diagram id="lhfBN0LIFg3ifYx_jxYB" name="Page-1">
    <mxGraphModel dx="815" dy="471" grid="1" gridSize="10" guides="1" tooltips="1" connect="1" arrows="1" fold="1" page="1" pageScale="1" pageWidth="827" pageHeight="1169" math="0" shadow="0">
      <root>
        <mxCell id="0" />
        <mxCell id="1" parent="0" />
        <mxCell id="3tJtA6FwiSn1o-JxA2-5-11" style="edgeStyle=orthogonalEdgeStyle;rounded=0;orthogonalLoop=1;jettySize=auto;html=1;entryX=0.419;entryY=-0.05;entryDx=0;entryDy=0;entryPerimeter=0;" parent="1" source="3tJtA6FwiSn1o-JxA2-5-1" target="3tJtA6FwiSn1o-JxA2-5-8" edge="1">
          <mxGeometry relative="1" as="geometry" />
        </mxCell>
        <mxCell id="3tJtA6FwiSn1o-JxA2-5-1" value="FHCRReportVC" style="rounded=1;whiteSpace=wrap;html=1;" parent="1" vertex="1">
          <mxGeometry x="60" y="30" width="120" height="50" as="geometry" />
        </mxCell>
        <mxCell id="3tJtA6FwiSn1o-JxA2-5-12" style="edgeStyle=orthogonalEdgeStyle;rounded=0;orthogonalLoop=1;jettySize=auto;html=1;entryX=0.581;entryY=-0.017;entryDx=0;entryDy=0;entryPerimeter=0;" parent="1" source="3tJtA6FwiSn1o-JxA2-5-2" target="3tJtA6FwiSn1o-JxA2-5-8" edge="1">
          <mxGeometry relative="1" as="geometry" />
        </mxCell>
        <mxCell id="3tJtA6FwiSn1o-JxA2-5-2" value="&lt;b&gt;ErrorDrawerVC&lt;/b&gt;&lt;br&gt;-image&lt;br&gt;-descriptionLabel&lt;br&gt;-bottomButton" style="rounded=1;whiteSpace=wrap;html=1;" parent="1" vertex="1">
          <mxGeometry x="290" y="40" width="120" height="60" as="geometry" />
        </mxCell>
        <mxCell id="3tJtA6FwiSn1o-JxA2-5-4" value="&lt;p class=&quot;p1&quot; style=&quot;margin: 0px ; font-stretch: normal ; font-size: 13px ; line-height: normal ; font-family: &amp;#34;menlo&amp;#34; ; color: rgb(158 , 241 , 221) ; background-color: rgb(31 , 31 , 36)&quot;&gt;enum FCRErrorTypes&lt;/p&gt;" style="rounded=1;whiteSpace=wrap;html=1;" parent="1" vertex="1">
          <mxGeometry x="620" y="20" width="120" height="60" as="geometry" />
        </mxCell>
        <mxCell id="3tJtA6FwiSn1o-JxA2-5-6" value="&amp;lt;&amp;lt;FHCRErrorAnalyticsWorker&amp;gt;&amp;gt;&lt;br&gt;&lt;p class=&quot;p1&quot; style=&quot;margin: 0px ; font-stretch: normal ; font-size: 13px ; line-height: normal ; font-family: &amp;#34;menlo&amp;#34; ; color: rgb(65 , 161 , 192) ; background-color: rgb(31 , 31 , 36)&quot;&gt;sendInternalServiceFailDataForAdobe()&lt;/p&gt;&lt;p class=&quot;p1&quot; style=&quot;margin: 0px ; font-stretch: normal ; font-size: 13px ; line-height: normal ; font-family: &amp;#34;menlo&amp;#34; ; color: rgb(65 , 161 , 192) ; background-color: rgb(31 , 31 , 36)&quot;&gt;sendCibilServiceFailForAdobe&lt;span class=&quot;s1&quot; style=&quot;color: rgba(255 , 255 , 255 , 0.85)&quot;&gt;()&lt;/span&gt;&lt;/p&gt;&lt;p class=&quot;p1&quot; style=&quot;margin: 0px ; font-stretch: normal ; font-size: 13px ; line-height: normal ; font-family: &amp;#34;menlo&amp;#34; ; color: rgb(65 , 161 , 192) ; background-color: rgb(31 , 31 , 36)&quot;&gt;&lt;span class=&quot;s1&quot; style=&quot;color: rgba(255 , 255 , 255 , 0.85)&quot;&gt;&lt;/span&gt;&lt;/p&gt;&lt;p class=&quot;p1&quot; style=&quot;margin: 0px ; font-stretch: normal ; font-size: 13px ; line-height: normal ; font-family: &amp;#34;menlo&amp;#34; ; color: rgb(65 , 161 , 192) ; background-color: rgb(31 , 31 , 36)&quot;&gt;sendInternalTryActionDataForAdobe&lt;span class=&quot;s1&quot; style=&quot;color: rgba(255 , 255 , 255 , 0.85)&quot;&gt;()&lt;/span&gt;&lt;/p&gt;&lt;p class=&quot;p1&quot; style=&quot;margin: 0px ; font-stretch: normal ; font-size: 13px ; line-height: normal ; font-family: &amp;#34;menlo&amp;#34; ; color: rgb(65 , 161 , 192) ; background-color: rgb(31 , 31 , 36)&quot;&gt;&lt;span class=&quot;s1&quot; style=&quot;color: rgba(255 , 255 , 255 , 0.85)&quot;&gt;&lt;/span&gt;&lt;/p&gt;&lt;p class=&quot;p1&quot; style=&quot;margin: 0px ; font-stretch: normal ; font-size: 13px ; line-height: normal ; font-family: &amp;#34;menlo&amp;#34; ; color: rgb(65 , 161 , 192) ; background-color: rgb(31 , 31 , 36)&quot;&gt;sendCibilTryActionDataForAdobe&lt;span class=&quot;s1&quot; style=&quot;color: rgba(255 , 255 , 255 , 0.85)&quot;&gt;()&lt;/span&gt;&lt;/p&gt;" style="rounded=1;whiteSpace=wrap;html=1;" parent="1" vertex="1">
          <mxGeometry x="340" y="250" width="360" height="190" as="geometry" />
        </mxCell>
        <mxCell id="3tJtA6FwiSn1o-JxA2-5-7" value="&lt;p class=&quot;p1&quot; style=&quot;margin: 0px ; font-stretch: normal ; font-size: 13px ; line-height: normal ; font-family: &amp;#34;menlo&amp;#34; ; background-color: rgb(31 , 31 , 36)&quot;&gt;&lt;font color=&quot;#fc5fa3&quot;&gt;&amp;lt;&amp;lt;&lt;/font&gt;&lt;span style=&quot;color: rgb(93 , 216 , 255)&quot;&gt;FHCRAnalyticsWorker&amp;gt;&amp;gt;&lt;/span&gt;&lt;/p&gt;&lt;p class=&quot;p2&quot; style=&quot;margin: 0px ; font-stretch: normal ; font-size: 13px ; line-height: normal ; font-family: &amp;#34;menlo&amp;#34; ; color: rgb(65 , 161 , 192) ; background-color: rgb(31 , 31 , 36)&quot;&gt;&lt;span class=&quot;s2&quot; style=&quot;color: rgba(255 , 255 , 255 , 0.85)&quot;&gt;&amp;nbsp; &amp;nbsp;&lt;/span&gt;sendFHCRSuccessDataToAdobe&lt;span class=&quot;s2&quot; style=&quot;color: rgba(255 , 255 , 255 , 0.85)&quot;&gt;()&lt;/span&gt;&lt;/p&gt;&lt;p class=&quot;p2&quot; style=&quot;margin: 0px ; font-stretch: normal ; font-size: 13px ; line-height: normal ; font-family: &amp;#34;menlo&amp;#34; ; color: rgb(65 , 161 , 192) ; background-color: rgb(31 , 31 , 36)&quot;&gt;sendStateDataToAdobe&lt;span class=&quot;s2&quot; style=&quot;color: rgba(255 , 255 , 255 , 0.85)&quot;&gt;()&lt;/span&gt;&lt;/p&gt;&lt;p class=&quot;p2&quot; style=&quot;margin: 0px ; font-stretch: normal ; font-size: 13px ; line-height: normal ; font-family: &amp;#34;menlo&amp;#34; ; color: rgb(65 , 161 , 192) ; background-color: rgb(31 , 31 , 36)&quot;&gt;&lt;span class=&quot;s2&quot; style=&quot;color: rgba(255 , 255 , 255 , 0.85)&quot;&gt;&amp;nbsp;&lt;/span&gt;sendFHCRGetOTPDataToAdobe&lt;span class=&quot;s2&quot; style=&quot;color: rgba(255 , 255 , 255 , 0.85)&quot;&gt;()&lt;/span&gt;&lt;/p&gt;&lt;p class=&quot;p2&quot; style=&quot;margin: 0px ; font-stretch: normal ; font-size: 13px ; line-height: normal ; font-family: &amp;#34;menlo&amp;#34; ; color: rgb(65 , 161 , 192) ; background-color: rgb(31 , 31 , 36)&quot;&gt;&lt;span class=&quot;s2&quot; style=&quot;color: rgba(255 , 255 , 255 , 0.85)&quot;&gt;&amp;nbsp;&lt;/span&gt;sendFHCROtpSuccessDataToAdobe&lt;span class=&quot;s2&quot; style=&quot;color: rgba(255 , 255 , 255 , 0.85)&quot;&gt;()&lt;/span&gt;&lt;/p&gt;" style="rounded=1;whiteSpace=wrap;html=1;" parent="1" vertex="1">
          <mxGeometry x="30" y="250" width="290" height="190" as="geometry" />
        </mxCell>
        <mxCell id="3tJtA6FwiSn1o-JxA2-5-9" style="edgeStyle=orthogonalEdgeStyle;rounded=0;orthogonalLoop=1;jettySize=auto;html=1;entryX=0.5;entryY=0;entryDx=0;entryDy=0;" parent="1" source="3tJtA6FwiSn1o-JxA2-5-8" target="3tJtA6FwiSn1o-JxA2-5-7" edge="1">
          <mxGeometry relative="1" as="geometry">
            <mxPoint x="175" y="240" as="targetPoint" />
          </mxGeometry>
        </mxCell>
        <mxCell id="3tJtA6FwiSn1o-JxA2-5-10" style="edgeStyle=orthogonalEdgeStyle;rounded=0;orthogonalLoop=1;jettySize=auto;html=1;" parent="1" source="3tJtA6FwiSn1o-JxA2-5-8" target="3tJtA6FwiSn1o-JxA2-5-6" edge="1">
          <mxGeometry relative="1" as="geometry" />
        </mxCell>
        <mxCell id="3tJtA6FwiSn1o-JxA2-5-8" value="Interactor" style="rounded=1;whiteSpace=wrap;html=1;" parent="1" vertex="1">
          <mxGeometry x="115" y="130" width="265" height="60" as="geometry" />
        </mxCell>
      </root>
    </mxGraphModel>
  </diagram>
</mxfile>
